<?xml version="1.0" standalone="no"?>
<!DOCTYPE svg PUBLIC "-//W3C//DTD SVG 20010904//EN"
 "http://www.w3.org/TR/2001/REC-SVG-20010904/DTD/svg10.dtd">
<svg version="1.0" xmlns="http://www.w3.org/2000/svg"
 width="500.000000pt" height="500.000000pt" viewBox="0 0 500.000000 500.000000"
 preserveAspectRatio="xMidYMid meet">

<g transform="translate(0.000000,500.000000) scale(0.100000,-0.100000)"
fill="#000000" stroke="none">
<path d="M2185 3460 c-159 -94 -298 -177 -307 -185 -17 -14 -18 -44 -18 -373
0 -271 3 -362 13 -374 6 -9 143 -94 304 -187 197 -116 302 -171 321 -171 20 0
122 54 313 166 156 91 292 173 302 181 15 14 17 37 17 180 0 89 -3 163 -6 163
-4 0 -31 -14 -60 -31 l-54 -30 0 -93 c0 -88 -1 -93 -27 -117 -30 -27 -442
-268 -472 -276 -23 -6 -39 2 -299 155 -159 93 -216 131 -223 150 -6 15 -9 137
-7 294 3 252 4 269 23 287 36 36 466 281 493 281 29 0 467 -250 495 -282 14
-17 17 -41 17 -144 0 -71 4 -125 10 -129 5 -3 32 6 60 22 l50 28 0 146 c0 105
-4 149 -12 157 -15 12 -529 312 -575 336 -18 9 -40 16 -50 16 -10 0 -148 -77
-308 -170z"/>
<path d="M2297 3267 c-159 -91 -177 -105 -175 -126 3 -21 33 -43 178 -127 96
-57 184 -103 196 -104 11 0 81 35 155 79 l134 78 3 -161 c1 -88 1 -165 -2
-172 -7 -17 -263 -164 -287 -164 -22 0 -258 130 -277 153 -6 7 -12 59 -13 115
-1 58 -6 108 -13 116 -17 21 -102 67 -109 59 -4 -3 -7 -84 -7 -178 0 -151 2
-174 18 -187 28 -25 385 -228 401 -228 19 0 392 217 409 238 13 18 18 458 4
478 -4 6 -33 26 -65 44 l-58 32 -132 -76 c-73 -42 -145 -76 -160 -76 -28 0
-147 65 -147 80 0 11 61 51 114 77 31 14 36 14 67 -1 33 -17 35 -17 86 11 29
15 53 35 53 43 -1 18 -141 100 -172 100 -13 0 -103 -46 -201 -103z"/>
<path d="M1487 1808 c-28 -22 -35 -60 -36 -206 l-2 -142 35 0 35 0 3 73 3 72
108 3 c81 2 107 0 108 -10 1 -7 0 -41 -1 -75 l-2 -63 36 0 36 0 0 160 c0 209
8 200 -173 200 -91 0 -138 -4 -150 -12z m257 -93 l0 -30 -112 -3 -112 -3 0 36
0 36 112 -3 112 -3 0 -30z"/>
<path d="M1890 1640 l0 -180 35 0 35 0 0 75 c0 64 3 75 17 75 9 0 51 -34 94
-75 75 -74 78 -75 128 -75 l51 0 0 35 c0 34 -1 35 -38 35 -30 0 -45 7 -70 33
-18 18 -32 36 -32 40 0 4 22 7 48 7 69 0 87 22 87 107 0 99 -8 103 -201 103
l-154 0 0 -180z m290 75 l0 -35 -110 0 -110 0 0 35 0 35 110 0 110 0 0 -35z"/>
<path d="M2332 1808 c-8 -8 -12 -63 -12 -180 l0 -168 35 0 35 0 0 122 0 123
125 -125 c163 -163 159 -164 163 69 l2 171 -35 0 -35 0 0 -115 c0 -63 -4 -115
-8 -115 -4 0 -59 52 -122 115 -62 63 -118 115 -125 115 -6 0 -16 -5 -23 -12z"/>
<path d="M2775 1795 c-24 -23 -25 -29 -25 -155 0 -126 1 -132 25 -155 24 -24
28 -25 180 -25 l155 0 0 35 0 35 -145 0 -145 0 0 40 0 40 145 0 145 0 0 35 0
35 -145 0 -145 0 0 35 0 35 145 0 145 0 0 35 0 35 -155 0 c-152 0 -156 -1
-180 -25z"/>
<path d="M3190 1785 l0 -35 70 0 70 0 0 -145 0 -145 35 0 35 0 0 145 0 145 75
0 75 0 0 35 0 35 -180 0 -180 0 0 -35z"/>
</g>
</svg>
